<?xml version="1.0" encoding="UTF-8"?>
<svg xmlns="http://www.w3.org/2000/svg" viewBox="0 0 1169.37 845.15">
  <defs>
    <style>
      .cls-1 {
        fill: #b08d57;
      }

      .cls-2 {
        isolation: isolate;
      }

      .cls-3 {
        fill: #b7bcc2;
      }
    </style>
  </defs>
  <g id="eg02R4LqCua1" shape-rendering="geometricPrecision" text-rendering="geometricPrecision">
    <g>
      <g>
        <g class="cls-2">
          <g class="cls-2">
            <path class="cls-3" d="M579.67,361.55l33.9-241.5h117.6c39.2,0,56,19.6,50.5,58.8l-6.6,46.9c-5.5,39.2-27.9,58.8-67.1,58.8h-67.2l-10.8,77h-50.4.1ZM647.27,239.05h65.1c7,0,11-3.5,12-10.5l7.4-52.5c1-7-2-10.5-9-10.5h-65.1l-10.3,73.5h-.1Z"/>
          </g>
        </g>
        <g class="cls-2">
          <g class="cls-2">
            <path class="cls-3" d="M776.77,343.35l3.8-27.3h108.5c7,0,11-3.5,12-10.5l3.5-25.2c1-6.8-1.4-10.6-7.1-11.6l-66.3-14c-27.2-5.6-38.6-24.4-34.1-56.4l2.8-19.6c5.5-39.2,27.9-58.8,67.1-58.8h80.2l20.9,18.2-3.8,27.3h-101.5c-7,0-11,3.5-12,10.5l-3.2,22.8c-.9,6.5,1.5,10.4,7.1,11.6l66.3,13.6c27.2,5.6,38.6,24.4,34.1,56.4l-3.1,22.4c-5.5,39.2-27.9,58.8-67.1,58.8h-87.1l-20.9-18.2h-.1Z"/>
          </g>
        </g>
      </g>
      <g>
        <g class="cls-2">
          <g class="cls-2">
            <path class="cls-1" d="M774.77,649.75l17.4-123.9c5.5-39.2,27.9-58.8,67.1-58.8h101.2l20.9,18.2-3.8,27.3h-122.5c-7,0-11,3.5-12,10.5l-18.2,129.5c-1,7,2,10.5,9,10.5h79.1l7.9-56h-46.2l6.4-45.5h96.6l-20.7,147h-131.6c-39.2,0-56-19.6-50.5-58.8h-.1,0Z"/>
          </g>
        </g>
        <g class="cls-2">
          <g class="cls-2">
            <path class="cls-1" d="M978.07,690.35l3.8-27.3h108.5c7,0,11-3.5,12-10.5l3.5-25.2c1-6.8-1.4-10.6-7.1-11.5l-66.3-14c-27.2-5.6-38.6-24.4-34.1-56.4l2.8-19.6c5.5-39.2,27.9-58.8,67.1-58.8h80.2l20.9,18.2-3.8,27.3h-101.5c-7,0-11,3.5-12,10.5l-3.2,22.8c-.9,6.5,1.5,10.4,7.1,11.5l66.3,13.7c27.2,5.6,38.6,24.4,34.1,56.3l-3.1,22.4c-5.5,39.2-27.9,58.8-67.1,58.8h-87.1l-20.9-18.2h-.1Z"/>
          </g>
        </g>
      </g>
      <path class="cls-1" d="M315.89,583.09c0-144.73,117.33-262.06,262.06-262.06,97.82,0,183.12,53.59,228.14,133.02h-70.97c-37.3-45.37-93.86-74.31-157.17-74.31-112.31,0-203.35,91.04-203.35,203.35s91.04,203.35,203.35,203.35c58.43,0,111.11-24.65,148.2-64.11h73.85c-46.36,73.78-128.48,122.82-222.05,122.82-144.73,0-262.06-117.33-262.06-262.06h0Z"/>
      <path class="cls-3" d="M79.23,221.16l-20.38-6.52-.39-.14-.8-.33-1.2-.56-1.58-.83-1.94-1.12-2.28-1.45-2.59-1.81-2.87-2.2-3.12-2.62-3.34-3.06-3.53-3.53-3.68-4.02-3.8-4.53-3.87-5.05-1.95-2.73-.49-.7-.12-.18-.06-.09-.03-.04-.02-.02h0s0-.02,0-.02l7.64-17.17h0s.01,0,.01,0h.03s.05-.01.05-.01h.11s.21-.04.21-.04l.85-.11,3.33-.37,6.35-.51,5.9-.21,5.45.04,4.99.26,4.51.43,4.04.56,3.56.66,3.08.71,2.6.72,2.14.69,1.67.62,1.22.52.79.37.36.19,18.49,10.77,22.13-31.33-16.33-13.83-.3-.28-.61-.62-.9-.98-1.15-1.37-1.36-1.78-1.55-2.21-1.7-2.67-1.81-3.13-1.88-3.62-1.91-4.11-1.91-4.61-1.86-5.12-1.77-5.63-1.65-6.15-.76-3.27-.18-.84-.05-.21-.02-.11v-.05s-.02-.03-.02-.03h0s0-.02,0-.02l13.62-12.94h0s.01,0,.01,0h.03s.05.02.05.02l.1.03.21.06.83.23,3.22.93,6.06,1.96,5.54,2.06,5.02,2.12,4.51,2.14,4.01,2.12,3.51,2.06,3.04,1.97,2.57,1.83,2.13,1.66,1.71,1.46,1.31,1.22.93.95.58.65.26.32,12.96,17.02,32.43-20.48-9.8-19.02-.17-.37-.33-.8-.45-1.25-.54-1.7-.58-2.17-.58-2.64-.55-3.11-.47-3.59-.35-4.06-.2-4.53v-4.99s.24-5.44.24-5.44l.52-5.89.83-6.31.55-3.31.15-.84.04-.21.02-.11v-.05s.01-.03.01-.03h0s0-.02,0-.02l17.54-6.74h0s.01,0,.01,0l.02.02.04.03.09.07.17.13.68.53,2.62,2.09,4.84,4.13,4.32,4.03,3.82,3.88,3.34,3.71,2.89,3.5,2.46,3.25,2.05,2.98,1.68,2.68,1.33,2.35,1.02,2,.74,1.62.5,1.23.29.82.12.39,5.46,20.69,37.8-6.51-1.77-21.32-.02-.41v-.87s.06-1.33.06-1.33l.16-1.78.29-2.22.47-2.66.69-3.08.94-3.49,1.23-3.89,1.55-4.26,1.91-4.61,2.3-4.94,2.73-5.24,3.18-5.51,1.77-2.85.46-.72.12-.18.06-.09.03-.05V.01s.02-.01.02-.01h0s18.78.48,18.78.48h0s0,.01,0,.01v.02s.04.05.04.05l.05.09.11.19.42.74,1.62,2.94,2.9,5.67,2.45,5.37,2.05,5.05,1.67,4.7,1.33,4.33,1.02,3.94.76,3.54.53,3.12.33,2.68.18,2.24.07,1.78v1.33s-.05.87-.05.87l-.04.41-2.87,21.2,37.41,8.45,6.52-20.38.14-.39.33-.8.56-1.2.83-1.58,1.12-1.94,1.45-2.28,1.81-2.59,2.2-2.87,2.62-3.12,3.06-3.34,3.53-3.53,4.02-3.68,4.53-3.8,5.05-3.87,2.73-1.95.7-.49.18-.12.09-.06.04-.03.02-.02h.01s0,0,0,0l17.17,7.64h0s0,.02,0,.02v.03s.01.05.01.05v.11s.04.21.04.21l.11.85.37,3.33.51,6.35.21,5.9-.04,5.45-.26,4.99-.43,4.51-.56,4.04-.66,3.56-.71,3.08-.72,2.6-.69,2.14-.62,1.67-.52,1.22-.37.79-.19.36-10.77,18.49,31.33,22.13,13.83-16.33.28-.3.62-.61.98-.9,1.37-1.15,1.78-1.36,2.21-1.55,2.67-1.7,3.13-1.81,3.62-1.88,4.11-1.91,4.61-1.91,5.12-1.86,5.63-1.77,6.15-1.65,3.27-.76.84-.18.21-.05.11-.02h.05s.03-.02.03-.02h.01s0,0,0,0l12.94,13.62h0s0,.02,0,.02v.03s-.02.05-.02.05l-.03.1-.06.21-.23.83-.93,3.22-1.96,6.06-2.06,5.54-2.12,5.02-2.14,4.51-2.12,4.01-2.06,3.51-1.97,3.04-1.83,2.57-1.66,2.13-1.46,1.71-1.22,1.31-.95.93-.65.58-.32.26-17.02,12.96,20.48,32.43,19.02-9.8.37-.17.8-.33,1.25-.45,1.7-.54,2.17-.58,2.64-.58,3.11-.55,3.59-.47,4.06-.35,4.53-.2h4.99s5.44.24,5.44.24l5.89.52,6.31.83,3.31.55.84.15.21.04.11.02h.05s.03.01.03.01h.01s0,0,0,0l6.74,17.54h0s0,.02,0,.02l-.02.02-.03.04-.07.09-.13.17-.53.68-2.09,2.62-4.13,4.84-4.03,4.32-3.88,3.82-3.71,3.34-3.5,2.89-3.25,2.46-2.98,2.05-2.68,1.68-2.35,1.33-2,1.02-1.62.74-1.23.5-.82.29-.39.12-20.69,5.46,6.51,37.8,21.32-1.77.41-.02h.87s1.33.06,1.33.06l1.78.16,2.22.29,2.66.47,3.08.69,3.49.94,3.89,1.23,4.26,1.55,4.61,1.91,4.94,2.3,5.24,2.73,5.51,3.18,2.85,1.77.72.46.18.12.09.06.05.03h.02s.01.02.01.02h0s-.49,18.79-.49,18.79h0s-.01.01-.01.01h-.02s-.05.04-.05.04l-.09.05-.19.11-.74.42-2.94,1.62-5.67,2.9-5.37,2.45-5.05,2.05-4.7,1.67-4.33,1.33-3.94,1.02-3.54.76-3.12.53-2.68.33-2.24.18-1.78.07h-1.33s-.87-.05-.87-.05l-.41-.04-21.2-2.87-8.45,37.41,20.38,6.52.39.14.8.33,1.2.56,1.58.83,1.94,1.12,2.28,1.45,2.59,1.81,2.87,2.2,3.12,2.62,3.34,3.06,3.53,3.53,3.68,4.02,3.8,4.53,3.87,5.05,1.95,2.73.49.7.12.18.06.09.03.04.02.02h0s0,.02,0,.02l-7.64,17.17h0s-.01,0-.01,0h-.03s-.05.01-.05.01h-.11s-.21.04-.21.04l-.85.11-3.33.37-6.35.51-5.9.21-5.45-.04-4.99-.26-4.51-.43-4.04-.56-3.56-.66-3.08-.71-2.6-.72-2.14-.69-1.67-.62-1.22-.52-.79-.37-.36-.19-18.49-10.77-22.13,31.33,16.33,13.83.3.28.61.62.9.98,1.15,1.37,1.36,1.78,1.55,2.21,1.7,2.67,1.81,3.13,1.88,3.62,1.91,4.11,1.91,4.61,1.86,5.12,1.77,5.63,1.65,6.15.76,3.27.18.84.05.21.02.11v.05s.02.03.02.03h0s0,.02,0,.02l-13.62,12.94h0s-.01,0-.01,0h-.03s-.05-.02-.05-.02l-.1-.03-.21-.06-.83-.23-3.22-.93-6.06-1.96-5.54-2.06-5.02-2.12-4.51-2.14-4.01-2.12-3.51-2.06-3.04-1.97-2.57-1.83-2.13-1.66-1.71-1.46-1.31-1.22-.93-.95-.58-.65-.26-.32-12.96-17.02-32.43,20.48,9.8,19.02.17.37.33.8.45,1.25.54,1.7.58,2.17.58,2.64.55,3.11.47,3.59.35,4.06.2,4.53v4.99s-.24,5.44-.24,5.44l-.52,5.89-.83,6.31-.55,3.31-.15.84-.04.21-.02.11v.05s-.01.03-.01.03h0s0,.02,0,.02l-17.54,6.74h0s-.01,0-.01,0l-.02-.02-.04-.03-.09-.07-.17-.13-.68-.53-2.62-2.09-4.84-4.13-4.32-4.03-3.82-3.88-3.34-3.71-2.89-3.5-2.46-3.25-2.05-2.98-1.68-2.68-1.33-2.35-1.02-2-.74-1.62-.5-1.23-.29-.82-.12-.39-5.46-20.69-37.8,6.51,1.77,21.32.02.41v.87s-.06,1.33-.06,1.33l-.16,1.78-.29,2.22-.47,2.66-.69,3.08-.94,3.49-1.23,3.89-1.55,4.26-1.91,4.61-2.3,4.94-2.73,5.24-3.18,5.51-1.77,2.85-.46.72-.12.18-.06.09-.03.05v.02s-.02.01-.02.01h0s-18.78-.48-18.78-.48h0s0-.01,0-.01v-.02s-.04-.05-.04-.05l-.05-.09-.11-.19-.42-.74-1.62-2.94-2.9-5.67-2.45-5.37-2.05-5.05-1.67-4.7-1.33-4.33-1.02-3.94-.76-3.54-.53-3.12-.33-2.68-.18-2.24-.07-1.78v-1.33s.05-.87.05-.87l.04-.41,2.87-21.2-37.41-8.45-6.52,20.38-.14.39-.33.8-.56,1.2-.83,1.58-1.12,1.94-1.45,2.28-1.81,2.59-2.2,2.87-2.62,3.12-3.06,3.34-3.53,3.53-4.02,3.68-4.53,3.8-5.05,3.87-2.73,1.95-.7.49-.18.12-.09.06-.04.03-.02.02h-.01s0,0,0,0l-17.17-7.64h0s0-.02,0-.02v-.03s-.01-.05-.01-.05v-.11s-.04-.21-.04-.21l-.11-.85-.37-3.33-.51-6.35-.21-5.9.04-5.45.26-4.99.43-4.51.56-4.04.66-3.56.71-3.08.72-2.6.69-2.14.62-1.67.52-1.22.37-.79.19-.36,10.77-18.49-31.33-22.13-13.83,16.33-.28.3-.62.61-.98.9-1.37,1.15-1.78,1.36-2.21,1.55-2.67,1.7-3.13,1.81-3.62,1.88-4.11,1.91-4.61,1.91-5.12,1.86-5.63,1.77-6.15,1.65-3.27.76-.84.18-.21.05-.11.02h-.05s-.03.02-.03.02h-.01s0,0,0,0l-12.94-13.62h0s0-.02,0-.02v-.03s.02-.05.02-.05l.03-.1.06-.21.23-.83.93-3.22,1.96-6.06,2.06-5.54,2.12-5.02,2.14-4.51,2.12-4.01,2.06-3.51,1.97-3.04,1.83-2.57,1.66-2.13,1.46-1.71,1.22-1.31.95-.93.65-.58.32-.26,17.02-12.96-20.48-32.43-19.02,9.8-.37.17-.8.33-1.25.45-1.7.54-2.17.58-2.64.58-3.11.55-3.59.47-4.06.35-4.53.2h-4.99s-5.44-.24-5.44-.24l-5.89-.52-6.31-.83-3.31-.55-.84-.15-.21-.04-.11-.02h-.05s-.03-.01-.03-.01h-.01s0,0,0,0l-6.74-17.54h0s0-.02,0-.02l.02-.02.03-.04.07-.09.13-.17.53-.68,2.09-2.62,4.13-4.84,4.03-4.32,3.88-3.82,3.71-3.34,3.5-2.89,3.25-2.46,2.98-2.05,2.68-1.68,2.35-1.33,2-1.02,1.62-.74,1.23-.5.82-.29.39-.12,20.69-5.46-6.51-37.8-21.32,1.77-.41.02h-.87s-1.33-.06-1.33-.06l-1.78-.16-2.22-.29-2.66-.47-3.08-.69-3.49-.94-3.89-1.23-4.26-1.55-4.61-1.91-4.94-2.3-5.24-2.73-5.51-3.18-2.85-1.77-.72-.46-.18-.12-.09-.06-.05-.03H.01s-.01-.02-.01-.02h0s.49-18.79.49-18.79h0s.01-.01.01-.01h.02s.05-.04.05-.04l.09-.05.19-.11.74-.42,2.94-1.62,5.67-2.9,5.37-2.45,5.05-2.05,4.7-1.67,4.33-1.33,3.94-1.02,3.54-.76,3.12-.53,2.68-.33,2.24-.18,1.78-.07h1.33s.87.05.87.05l.41.04,21.2,2.87,8.45-37.41h0ZM305.99,139.82c-81.83-9.94-156.23,48.34-166.17,130.17-9.94,81.83,48.34,156.23,130.17,166.17,81.83,9.94,156.23-48.34,166.17-130.17s-48.34-156.23-130.17-166.17h0Z"/>
      <path class="cls-3" d="M507.96,684.54l-15.38,22.4-.34.43-.85.96-1.44,1.41-2.09,1.78-2.8,2.07-3.55,2.26-4.35,2.36-5.17,2.35-6,2.24-6.85,2.03-7.69,1.71-1.02.18h-.01s-11.7-11.28-11.7-11.28h0s.15-1.04.15-1.04l1.42-7.75,1.77-6.92,2.02-6.08,2.16-5.25,2.2-4.43,2.13-3.64,1.96-2.87,1.7-2.16,1.36-1.49.93-.89.42-.35,21.82-16.2-17.18-32.24-25.61,9.09-.53.15-1.25.27-1.99.29-2.74.21-3.48.03-4.2-.26-4.9-.65-5.56-1.13-6.18-1.71-6.73-2.38-7.22-3.14-.93-.45h0s-2.84-16.01-2.84-16.01h0s.72-.75.72-.75l5.7-5.43,5.5-4.56,5.21-3.73,4.83-2.98,4.38-2.29,3.86-1.69,3.28-1.17,2.65-.74,1.97-.41,1.27-.17.55-.04,27.17-.28,5.05-36.18-26.06-7.7-.52-.19-1.17-.51-1.79-.93-2.34-1.44-2.83-2.02-3.25-2.68-3.59-3.41-3.84-4.19-3.99-5.02-4.05-5.89-4-6.79-.49-.91h0s7.11-14.62,7.11-14.62h.01s1.02-.18,1.02-.18l7.81-1.04,7.13-.45,6.41.04,5.66.43,4.89.72,4.12.9,3.34.98,2.58.95,1.84.83,1.13.61.47.29,22.15,15.75,25.35-26.3-16.55-21.55-.31-.46-.65-1.11-.9-1.8-1.05-2.54-1.1-3.3-1.05-4.08-.9-4.86-.64-5.64-.28-6.4.19-7.14.75-7.84.14-1.03h0s14.34-7.65,14.34-7.65h.01s.93.46.93.46l6.93,3.74,6.03,3.83,5.16,3.8,4.33,3.68,3.54,3.46,2.8,3.15,2.13,2.76,1.52,2.29,1,1.75.56,1.15.21.51,8.66,25.76,35.97-6.38-.73-27.16.02-.55.13-1.28.34-1.99.64-2.67,1.05-3.32,1.55-3.92,2.13-4.46,2.8-4.94,3.54-5.35,4.35-5.67,5.22-5.9.72-.75h.01s16.09,2.24,16.09,2.24h0s.48.93.48.93l3.41,7.1,2.63,6.64,1.94,6.11,1.34,5.52.83,4.88.41,4.19.1,3.48-.11,2.75-.22,2-.23,1.26-.13.53-8.13,25.93,32.85,15.98,15.38-22.4.34-.43.85-.96,1.44-1.41,2.09-1.78,2.8-2.07,3.55-2.26,4.35-2.36,5.17-2.35,6-2.24,6.85-2.03,7.69-1.71,1.02-.18h.01s11.7,11.28,11.7,11.28h0s-.15,1.04-.15,1.04l-1.42,7.75-1.77,6.92-2.02,6.08-2.16,5.25-2.2,4.43-2.13,3.64-1.96,2.87-1.7,2.16-1.36,1.49-.93.89-.42.35-21.82,16.2,17.18,32.24,25.61-9.09.53-.15,1.25-.27,1.99-.29,2.74-.21,3.48-.03,4.2.26,4.9.65,5.56,1.13,6.18,1.71,6.73,2.38,7.22,3.14.93.45h0s2.84,16.01,2.84,16.01h0s-.72.75-.72.75l-5.7,5.43-5.5,4.56-5.21,3.73-4.83,2.98-4.38,2.29-3.86,1.69-3.28,1.17-2.65.74-1.97.41-1.27.17-.55.04-27.17.28-5.05,36.18,26.06,7.7.52.19,1.17.51,1.79.93,2.34,1.44,2.83,2.02,3.25,2.68,3.59,3.41,3.84,4.19,3.99,5.02,4.05,5.89,4,6.79.49.91h0s-7.11,14.62-7.11,14.62h-.01s-1.02.18-1.02.18l-7.81,1.04-7.13.45-6.41-.04-5.66-.43-4.89-.72-4.12-.9-3.34-.98-2.58-.95-1.84-.83-1.13-.61-.47-.29-22.15-15.75-25.35,26.3,16.55,21.55.31.46.65,1.11.9,1.8,1.05,2.54,1.1,3.3,1.05,4.08.9,4.86.64,5.64.28,6.4-.19,7.14-.75,7.84-.14,1.03h0s-14.34,7.65-14.34,7.65h-.01s-.93-.46-.93-.46l-6.93-3.74-6.03-3.83-5.16-3.8-4.33-3.68-3.54-3.46-2.8-3.15-2.13-2.76-1.52-2.29-1-1.75-.56-1.15-.21-.51-8.66-25.76-35.97,6.38.73,27.16-.02.55-.13,1.28-.34,1.99-.64,2.67-1.05,3.32-1.55,3.92-2.13,4.46-2.8,4.94-3.54,5.35-4.35,5.67-5.22,5.9-.72.75h-.01s-16.09-2.24-16.09-2.24h0s-.48-.93-.48-.93l-3.41-7.1-2.63-6.64-1.94-6.11-1.34-5.52-.83-4.88-.41-4.19-.1-3.48.11-2.75.22-2,.23-1.26.13-.53,8.13-25.93-32.85-15.98h0ZM592.59,659.05c42.02-8.23,69.41-48.97,61.17-90.98s-48.97-69.4-90.99-61.17c-42.02,8.23-69.41,48.97-61.17,90.98s48.97,69.4,90.99,61.17Z"/>
      <circle class="cls-3" cx="287.99" cy="287.99" r="77.53"/>
      <circle class="cls-3" cx="577.68" cy="583.15" r="33.15"/>
    </g>
  </g>
</svg>